<?xml version="1.0" encoding="UTF-8"?>
<svg width="205px" height="486px" viewBox="0 0 205 486" version="1.1" xmlns="http://www.w3.org/2000/svg" xmlns:xlink="http://www.w3.org/1999/xlink">
    <!-- Generator: Sketch 49.2 (51160) - http://www.bohemiancoding.com/sketch -->
    <title>Fill 4</title>
    <desc>Created with Sketch.</desc>
    <defs></defs>
    <g id="Page-1" stroke="none" stroke-width="1" fill="none" fill-rule="evenodd">
        <g transform="translate(-70.000000, 0.000000)" fill="#231F20" id="Group-8">
            <g>
                <path d="M72.151833,415.9666 L70.6215223,276.9506 L70.3271922,27.6216 C70.3271922,27.6216 112.499755,39.5106 128.236124,2.5126 C128.236124,2.5126 129.447406,-0.3334 131.95127,1.1796 C131.95127,1.1796 221.930862,53.4056 223.544532,80.3136 C225.158202,107.2226 221.602571,372.0966 221.602571,372.0966 C221.602571,372.0966 221.644765,452.8966 274.107561,482.4046 L273.982008,485.5076 C273.982008,485.5076 169.785037,463.9086 169.962047,366.0426 L169.476299,261.2616 C154.732008,236.1476 120.570163,228.1826 120.570163,228.1826 L121.97492,395.9676 L121.713522,409.1616 C121.713522,409.1616 130.265561,425.6196 150.730765,431.4326 C150.730765,431.4326 111.496357,456.3316 101.394454,456.9196 C101.394454,456.9196 74.4642796,439.4476 72.151833,415.9666 Z M170.564291,211.7343 L170.408893,59.6653 C170.408893,59.6653 145.403184,77.7273 119.093573,66.4323 L118.956699,187.5393 L118.964932,180.4633 C155.294117,188.3983 170.564291,211.7343 170.564291,211.7343 C173.457165,211.7343 170.564291,211.7343 170.564291,211.7343 Z" id="Fill-4"></path>
            </g>
        </g>
    </g>
</svg>